<svg xmlns="http://www.w3.org/2000/svg" version="1.1" xmlns:xlink="http://www.w3.org/1999/xlink" xmlns:svgjs="http://svgjs.dev/svgjs" viewBox="0 0 800 800" opacity="0.1"><defs><filter id="bbburst-blur-1" x="-100%" y="-100%" width="400%" height="400%"><feGaussianBlur in="SourceGraphic" stdDeviation="1"></feGaussianBlur></filter><filter id="bbburst-blur-2" x="-100%" y="-100%" width="400%" height="400%"><feGaussianBlur in="SourceGraphic" stdDeviation="2"></feGaussianBlur></filter><filter id="bbburst-blur-3" x="-100%" y="-100%" width="400%" height="400%"><feGaussianBlur in="SourceGraphic" stdDeviation="4"></feGaussianBlur></filter><filter id="bbburst-blur-4" x="-100%" y="-100%" width="400%" height="400%"><feGaussianBlur in="SourceGraphic" stdDeviation="12"></feGaussianBlur></filter><symbol id="bbburst-shape-9" viewBox="0 0 182 172"><path d="M13.5809 69.845 91 13.5967l77.419 56.2483-29.571 91.012H43.1524L13.5809 69.845Z" stroke-width="22"></path></symbol><symbol id="bbburst-shape-11" viewBox="0 0 194 167"><path d="M10.398 161 97 11l86.603 150H10.397Z" stroke-width="11"></path></symbol><symbol id="bbburst-shape-13" viewBox="0 0 159 159"><path stroke-width="22" d="M11 11h137v137H11z"></path></symbol></defs><use xlink:href="#bbburst-shape-13" width="9.295138281549342" opacity="0.8734455528559423" transform="matrix(0.9955935276537282,-0.09377381134413372,0.09377381134413372,0.9955935276537282,325.58663035046084,-44.72127561264523)" fill="none" stroke="#eeeeee"></use><use xlink:href="#bbburst-shape-9" width="14.81580265163837" opacity="0.7005890471795382" transform="matrix(0.807803770947017,0.5894514972784268,-0.5894514972784268,0.807803770947017,689.82958350223,193.08191353487126)" fill="none" stroke="#eeeeee" filter="url(#bbburst-blur-1)"></use><use xlink:href="#bbburst-shape-11" width="9.144233377912602" opacity="0.8930849357499641" transform="matrix(0.9999831686222721,0.005801936931799975,-0.005801936931799975,0.9999831686222721,352.2642580412694,-15.817026404367766)" fill="none" stroke="#eeeeee"></use><use xlink:href="#bbburst-shape-11" width="27.72327972948502" opacity="0.4028718935370764" transform="matrix(0.8590993228294722,-0.511808903316406,0.511808903316406,0.8590993228294722,-46.99575149517696,-75.49051530288858)" fill="none" stroke="#eeeeee" filter="url(#bbburst-blur-2)"></use><use xlink:href="#bbburst-shape-13" width="14.23052587237593" opacity="0.633195064109444" transform="matrix(0.9949318108138083,0.10055193598711262,-0.10055193598711262,0.9949318108138083,583.9079165988213,68.50594753880898)" fill="none" stroke="#eeeeee" filter="url(#bbburst-blur-1)"></use><use xlink:href="#bbburst-shape-13" width="9.308632983354496" opacity="0.7409660742642568" transform="matrix(0.8745781677397384,-0.4848845517368046,0.4848845517368046,0.8745781677397384,315.75275121538925,27.08337712593459)" fill="none" stroke="#eeeeee" filter="url(#bbburst-blur-1)"></use><use xlink:href="#bbburst-shape-13" width="9.468280654722474" opacity="0.7860979359882104" transform="matrix(0.9086658979234713,0.4175239944613142,-0.4175239944613142,0.9086658979234713,614.9246339996195,-46.304653758703466)" fill="none" stroke="#eeeeee"></use><use xlink:href="#bbburst-shape-11" width="6.27120506038043" opacity="0.8533760229064484" transform="matrix(0.9983805373306665,-0.05688851096073534,0.05688851096073534,0.9983805373306665,338.2538001354481,56.133529664923685)" fill="none" stroke="#eeeeee"></use><use xlink:href="#bbburst-shape-11" width="5.83850872459794" opacity="0.9746176332271136" transform="matrix(0.8177738475768926,0.575539689525653,-0.575539689525653,0.8177738475768926,616.7321666993095,73.67269793534172)" fill="none" stroke="#eeeeee"></use><use xlink:href="#bbburst-shape-11" width="8.552882486624437" opacity="0.7837311260881638" transform="matrix(0.814862220884816,-0.5796546911521249,0.5796546911521249,0.814862220884816,261.6270338942826,83.86697484741944)" fill="none" stroke="#eeeeee"></use><use xlink:href="#bbburst-shape-11" width="15.028549618674006" opacity="0.5577334095745352" transform="matrix(0.9964094201392054,-0.08466562146380593,0.08466562146380593,0.9964094201392054,480.1582345173416,159.48610997128577)" fill="none" stroke="#eeeeee" filter="url(#bbburst-blur-1)"></use><use xlink:href="#bbburst-shape-13" width="22.017897204015693" opacity="0.45991713859853933" transform="matrix(0.8961046731816268,-0.443842781513961,0.443842781513961,0.8961046731816268,450.0753845385753,98.13073390877821)" fill="none" stroke="#eeeeee" filter="url(#bbburst-blur-2)"></use><use xlink:href="#bbburst-shape-11" width="24.33282185859258" opacity="0.3221884415253464" transform="matrix(1.1520967355708642,-0.48494650414964136,0.48494650414964136,1.1520967355708642,256.2601139793469,242.837529028625)" fill="none" stroke="#eeeeee" filter="url(#bbburst-blur-3)"></use><use xlink:href="#bbburst-shape-11" width="11.5548866649855" opacity="0.7607563068439975" transform="matrix(0.8265282157227443,0.5628952909859672,-0.5628952909859672,0.8265282157227443,655.1248185938392,167.94204199078058)" fill="none" stroke="#eeeeee" filter="url(#bbburst-blur-1)"></use><use xlink:href="#bbburst-shape-13" width="17.96363156423857" opacity="0.5708142644197781" transform="matrix(0.9987367502506078,0.0502484198642604,-0.0502484198642604,0.9987367502506078,306.58128419915585,-162.33559357816833)" fill="none" stroke="#eeeeee" filter="url(#bbburst-blur-1)"></use><use xlink:href="#bbburst-shape-11" width="7.049830375674026" opacity="0.7873301421470564" transform="matrix(0.7248870126017979,0.6888677804638862,-0.6888677804638862,0.7248870126017979,767.6630739350145,93.12941091375802)" fill="none" stroke="#eeeeee"></use><use xlink:href="#bbburst-shape-13" width="6.787134053553624" opacity="0.9627026741398842" transform="matrix(0.9356561131226401,-0.35291307424950047,0.35291307424950047,0.9356561131226401,250.74531309456978,42.983428154833234)" fill="none" stroke="#eeeeee"></use><use xlink:href="#bbburst-shape-13" width="33.511155119645565" opacity="0.40081978244669736" transform="matrix(0.8514108104448475,-0.5244994107314592,0.5244994107314592,0.8514108104448475,-9.486837398022828,-127.53075925200949)" fill="none" stroke="#eeeeee" filter="url(#bbburst-blur-2)"></use><use xlink:href="#bbburst-shape-9" width="12.285262165709481" opacity="0.7110628365789924" transform="matrix(0.7765974760630344,0.6299971112414126,-0.6299971112414126,0.7765974760630344,521.5646669849206,118.61023468530914)" fill="none" stroke="#eeeeee" filter="url(#bbburst-blur-1)"></use><use xlink:href="#bbburst-shape-13" width="12.219842695907936" opacity="0.6893236675509615" transform="matrix(0.9727697897439896,0.23177345870792487,-0.23177345870792487,0.9727697897439896,588.6751442297511,-86.2306293334633)" fill="none" stroke="#eeeeee" filter="url(#bbburst-blur-1)"></use><use xlink:href="#bbburst-shape-9" width="20.864083819952562" opacity="0.6062791716147687" transform="matrix(0.9927192941070634,-0.12045083273922913,0.12045083273922913,0.9927192941070634,211.00867576330944,123.93207993853594)" fill="none" stroke="#eeeeee" filter="url(#bbburst-blur-1)"></use><use xlink:href="#bbburst-shape-11" width="32.63209981640088" opacity="0.17643986837139836" transform="matrix(1.2484227965990806,0.06277356873502059,-0.06277356873502059,1.2484227965990806,298.1895624670383,254.02849916566214)" fill="none" stroke="#eeeeee" filter="url(#bbburst-blur-3)"></use><use xlink:href="#bbburst-shape-9" width="14.992510741832723" opacity="0.582486059077335" transform="matrix(0.997939153296651,-0.06416733060961267,0.06416733060961267,0.997939153296651,179.65674526483912,17.31772628025385)" fill="none" stroke="#eeeeee" filter="url(#bbburst-blur-1)"></use><use xlink:href="#bbburst-shape-11" width="20.63568405929143" opacity="0.45333622067537394" transform="matrix(0.9395551124974842,-0.34239770819887166,0.34239770819887166,0.9395551124974842,305.42889594149426,267.86331077952957)" fill="none" stroke="#eeeeee" filter="url(#bbburst-blur-2)"></use><use xlink:href="#bbburst-shape-11" width="7.752621877360366" opacity="0.8439538662472743" transform="matrix(0.984347871276932,0.17623639894350027,-0.17623639894350027,0.984347871276932,399.70468033724427,-15.56932557240691)" fill="none" stroke="#eeeeee"></use><use xlink:href="#bbburst-shape-11" width="6.385669426786967" opacity="0.8601069618073467" transform="matrix(0.8752039451561008,-0.48375412595986916,0.48375412595986916,0.8752039451561008,193.40430335483933,113.50111562554292)" fill="none" stroke="#eeeeee"></use><use xlink:href="#bbburst-shape-11" width="17.386568765976808" opacity="0.6547021696302662" transform="matrix(0.8030476863334046,-0.5959147703107934,0.5959147703107934,0.8030476863334046,11.097483516474597,23.995691558575516)" fill="none" stroke="#eeeeee" filter="url(#bbburst-blur-1)"></use><use xlink:href="#bbburst-shape-9" width="35.41315497116936" opacity="-0.1161887761829421" transform="matrix(1.2489492858776574,1.2258163326150004,-1.2258163326150004,1.2489492858776574,1222.3501733210007,-478.0704902527144)" fill="none" stroke="#eeeeee" filter="url(#bbburst-blur-4)"></use><use xlink:href="#bbburst-shape-11" width="28.0866626750844" opacity="0.050201318280464924" transform="matrix(1.6029773367921933,-0.7021137071234309,0.7021137071234309,1.6029773367921933,465.9552631741675,-446.61960072154545)" fill="none" stroke="#eeeeee" filter="url(#bbburst-blur-4)"></use><use xlink:href="#bbburst-shape-9" width="8.299195454967572" opacity="0.8942242181443246" transform="matrix(0.7636793504025498,0.645595732458587,-0.645595732458587,0.7636793504025498,694.024063881615,119.21124092090275)" fill="none" stroke="#eeeeee"></use><use xlink:href="#bbburst-shape-13" width="8.971571591491717" opacity="0.8201452040946551" transform="matrix(0.9995268760676961,-0.030757503447981192,0.030757503447981192,0.9995268760676961,460.3376523575525,-24.213739269571022)" fill="none" stroke="#eeeeee"></use><use xlink:href="#bbburst-shape-13" width="24.094634015576144" opacity="0.41677716740797266" transform="matrix(0.7289447306797443,-0.6845725524838364,0.6845725524838364,0.7289447306797443,279.64244372216604,322.95561522087235)" fill="none" stroke="#eeeeee" filter="url(#bbburst-blur-2)"></use><use xlink:href="#bbburst-shape-13" width="7.3211996814676485" opacity="0.8777630713784347" transform="matrix(0.8443335146725932,-0.5358179877538882,0.5358179877538882,0.8443335146725932,194.96066442468796,10.632322937306753)" fill="none" stroke="#eeeeee"></use><use xlink:href="#bbburst-shape-13" width="6.928992517629915" opacity="0.8279421831226333" transform="matrix(0.9411605312304226,0.3379598414813048,-0.3379598414813048,0.9411605312304226,545.7169865926452,98.55234193923815)" fill="none" stroke="#eeeeee"></use><use xlink:href="#bbburst-shape-11" width="26.564885686636615" opacity="0.25489705140362495" transform="matrix(1.2464930173899154,0.09356899912996998,-0.09356899912996998,1.2464930173899154,122.21948835308328,52.08710846512679)" fill="none" stroke="#eeeeee" filter="url(#bbburst-blur-3)"></use><use xlink:href="#bbburst-shape-11" width="6.369044636982301" opacity="0.9311261689050482" transform="matrix(0.9638290613782104,0.26652118197771424,-0.26652118197771424,0.9638290613782104,529.8516741774223,-2.8723106486636425)" fill="none" stroke="#eeeeee"></use><use xlink:href="#bbburst-shape-11" width="6.686904897042906" opacity="0.9029991489852369" transform="matrix(0.8736188302444504,0.4866108706577754,-0.4866108706577754,0.8736188302444504,634.1020079440741,38.22166102479281)" fill="none" stroke="#eeeeee"></use><use xlink:href="#bbburst-shape-13" width="5.429698978557285" opacity="0.9629469593367845" transform="matrix(0.8371523727453843,0.5469697476156914,-0.5469697476156914,0.8371523727453843,631.9588043491523,69.93993566640637)" fill="none" stroke="#eeeeee"></use><use xlink:href="#bbburst-shape-9" width="29.278044473388093" opacity="0.2037462901592414" transform="matrix(1.0295914351036537,0.7088310636260229,-0.7088310636260229,1.0295914351036537,1001.3141787662422,110.5889712017916)" fill="none" stroke="#eeeeee" filter="url(#bbburst-blur-3)"></use><use xlink:href="#bbburst-shape-11" width="13.713406395834276" opacity="0.6710235252253598" transform="matrix(0.9823362167436328,-0.18712444328255584,0.18712444328255584,0.9823362167436328,374.8208002126601,-128.68365338937997)" fill="none" stroke="#eeeeee" filter="url(#bbburst-blur-1)"></use><use xlink:href="#bbburst-shape-13" width="9.220885978969596" opacity="0.8190309006525758" transform="matrix(0.7856775616084105,-0.618636217162447,0.618636217162447,0.7856775616084105,90.79348209489365,31.548062827291005)" fill="none" stroke="#eeeeee"></use><use xlink:href="#bbburst-shape-13" width="25.41015058715715" opacity="-0.006078286782716047" transform="matrix(1.297196181561749,1.1746412501447485,-1.1746412501447485,1.297196181561749,1121.2932876542159,231.14860702129738)" fill="none" stroke="#eeeeee" filter="url(#bbburst-blur-4)"></use><use xlink:href="#bbburst-shape-11" width="8.466466704433891" opacity="0.8103484544842172" transform="matrix(0.7315629407363065,0.6817739095486475,-0.6817739095486475,0.7315629407363065,626.4212721091362,177.97199890704445)" fill="none" stroke="#eeeeee"></use><use xlink:href="#bbburst-shape-13" width="12.666854475153118" opacity="0.732727757592843" transform="matrix(0.826693636376316,-0.5626523185546323,0.5626523185546323,0.826693636376316,224.81504926427627,-34.016525075212144)" fill="none" stroke="#eeeeee" filter="url(#bbburst-blur-1)"></use><use xlink:href="#bbburst-shape-9" width="10.804161965908959" opacity="0.7818696671428171" transform="matrix(0.9800540161787678,0.19873128936296772,-0.19873128936296772,0.9800540161787678,420.72175481321875,-75.46992447561024)" fill="none" stroke="#eeeeee"></use><use xlink:href="#bbburst-shape-11" width="32.96038789085639" opacity="0.26880251208463224" transform="matrix(0.9675067662084442,-0.7914737249845245,0.7914737249845245,0.9675067662084442,-197.73614016058238,-169.59474748550332)" fill="none" stroke="#eeeeee" filter="url(#bbburst-blur-3)"></use><use xlink:href="#bbburst-shape-13" width="14.065864370339247" opacity="0.6122716938575619" transform="matrix(0.98712585623002,0.15994544057943597,-0.15994544057943597,0.98712585623002,428.8265788907584,-168.1574671890572)" fill="none" stroke="#eeeeee" filter="url(#bbburst-blur-1)"></use><use xlink:href="#bbburst-shape-9" width="11.132043882351386" opacity="0.7879291187074153" transform="matrix(0.7464316185561902,-0.665462124256209,0.665462124256209,0.7464316185561902,46.23179404640331,58.650890891273434)" fill="none" stroke="#eeeeee"></use><use xlink:href="#bbburst-shape-13" width="10.25387502325436" opacity="0.7595057535363421" transform="matrix(0.9881276105789543,0.15363536445599568,-0.15363536445599568,0.9881276105789543,423.87986790736295,-99.263272961614)" fill="none" stroke="#eeeeee" filter="url(#bbburst-blur-1)"></use><use xlink:href="#bbburst-shape-11" width="16.162356216596145" opacity="0.5921491033785267" transform="matrix(0.8286448047014442,-0.5597747650987006,0.5597747650987006,0.8286448047014442,102.03622197389436,-97.87862987843252)" fill="none" stroke="#eeeeee" filter="url(#bbburst-blur-1)"></use><use xlink:href="#bbburst-shape-13" width="20.283611096376994" opacity="0.5483716182151196" transform="matrix(0.8604203409920257,-0.5095849652483541,0.5095849652483541,0.8604203409920257,74.41822421791613,229.9072899290411)" fill="none" stroke="#eeeeee" filter="url(#bbburst-blur-2)"></use><use xlink:href="#bbburst-shape-13" width="10.95989867350521" opacity="0.628757271045974" transform="matrix(0.8555208724176089,0.5177683235365151,-0.5177683235365151,0.8555208724176089,640.7513785275496,-107.64773359833575)" fill="none" stroke="#eeeeee" filter="url(#bbburst-blur-1)"></use><use xlink:href="#bbburst-shape-11" width="9.061375970549552" opacity="0.741384469829229" transform="matrix(0.8900330514098981,0.4558960050252532,-0.4558960050252532,0.8900330514098981,607.3412261259414,-70.8982478477098)" fill="none" stroke="#eeeeee" filter="url(#bbburst-blur-1)"></use><use xlink:href="#bbburst-shape-9" width="20.81521750746934" opacity="0.47201421790697107" transform="matrix(0.9896998335399827,0.14315809264910787,-0.14315809264910787,0.9896998335399827,473.6078022415976,-233.60582926796016)" fill="none" stroke="#eeeeee" filter="url(#bbburst-blur-2)"></use><use xlink:href="#bbburst-shape-13" width="10.265953449090912" opacity="0.7484611428472937" transform="matrix(0.8460422449428859,-0.5331158596140259,0.5331158596140259,0.8460422449428859,248.0197012012792,156.5585515813333)" fill="none" stroke="#eeeeee" filter="url(#bbburst-blur-1)"></use><use xlink:href="#bbburst-shape-9" width="20.88261419336036" opacity="0.4894404270932964" transform="matrix(0.9686821747510466,0.2483039353686987,-0.2483039353686987,0.9686821747510466,638.7421245587012,-164.66006991176926)" fill="none" stroke="#eeeeee" filter="url(#bbburst-blur-2)"></use><use xlink:href="#bbburst-shape-11" width="11.14671452412317" opacity="0.6497619461465386" transform="matrix(0.8506261468526098,-0.5257710131708311,0.5257710131708311,0.8506261468526098,188.35546482355716,-95.01103690868555)" fill="none" stroke="#eeeeee" filter="url(#bbburst-blur-1)"></use><use xlink:href="#bbburst-shape-11" width="14.625152935850814" opacity="0.6541932012657696" transform="matrix(0.9827425238679965,0.18497873332240172,-0.18497873332240172,0.9827425238679965,622.4528908367856,5.171596075905143)" fill="none" stroke="#eeeeee" filter="url(#bbburst-blur-1)"></use><use xlink:href="#bbburst-shape-13" width="7.310703879617637" opacity="0.8959893605876211" transform="matrix(0.9620830039671566,-0.27275683946975954,0.27275683946975954,0.9620830039671566,257.9907025868401,52.59083120648512)" fill="none" stroke="#eeeeee"></use><use xlink:href="#bbburst-shape-13" width="25.162817672397143" opacity="0.3671323941110729" transform="matrix(0.8399689128624906,0.5426345228831331,-0.5426345228831331,0.8399689128624906,891.2130971465076,51.188286901541744)" fill="none" stroke="#eeeeee" filter="url(#bbburst-blur-2)"></use><use xlink:href="#bbburst-shape-13" width="4.939504614397877" opacity="0.957233033014755" transform="matrix(0.9978405598376099,-0.06568270048471897,0.06568270048471897,0.9978405598376099,356.7935674565961,-11.663571807577341)" fill="none" stroke="#eeeeee"></use><use xlink:href="#bbburst-shape-9" width="22.99424785432666" opacity="0.265453414297817" transform="matrix(1.2402449140442247,0.15586068518851642,-0.15586068518851642,1.2402449140442247,584.053641954423,203.21463100378935)" fill="none" stroke="#eeeeee" filter="url(#bbburst-blur-3)"></use><use xlink:href="#bbburst-shape-11" width="13.974972151855418" opacity="0.7988842936293173" transform="matrix(0.9693950012042838,0.24550627617261975,-0.24550627617261975,0.9693950012042838,421.90121057500625,68.23441871156115)" fill="none" stroke="#eeeeee"></use><use xlink:href="#bbburst-shape-13" width="18.99983932917002" opacity="0.12237614903313276" transform="matrix(1.2499931726974578,0.004131368991427759,-0.004131368991427759,1.2499931726974578,518.2631002438561,-473.4823565130857)" fill="none" stroke="#eeeeee" filter="url(#bbburst-blur-3)"></use><use xlink:href="#bbburst-shape-13" width="8.801065211020905" opacity="0.7336536488121288" transform="matrix(0.926661023979717,-0.3758980535156605,0.3758980535156605,0.926661023979717,225.94255729464462,149.2287633869966)" fill="none" stroke="#eeeeee" filter="url(#bbburst-blur-1)"></use><use xlink:href="#bbburst-shape-9" width="16.75922969967388" opacity="0.594808565362614" transform="matrix(0.7870257340050049,-0.6169201682664324,0.6169201682664324,0.7870257340050049,75.6755179319776,258.2608927791352)" fill="none" stroke="#eeeeee" filter="url(#bbburst-blur-1)"></use><use xlink:href="#bbburst-shape-9" width="14.696481905243726" opacity="0.5473628606225772" transform="matrix(0.9440547244544535,0.32978883734175407,-0.32978883734175407,0.9440547244544535,541.9969088616972,222.83844328538106)" fill="none" stroke="#eeeeee" filter="url(#bbburst-blur-2)"></use><use xlink:href="#bbburst-shape-13" width="22.250625870346184" opacity="0.2678335653959316" transform="matrix(1.201694588143039,-0.3441367705255163,0.3441367705255163,1.201694588143039,181.65187146004544,-399.3723226566602)" fill="none" stroke="#eeeeee" filter="url(#bbburst-blur-3)"></use><use xlink:href="#bbburst-shape-13" width="7.5529078721397465" opacity="0.8326718838522892" transform="matrix(0.7546191416844371,0.6561630521474395,-0.6561630521474395,0.7546191416844371,734.850464659487,92.60405843139921)" fill="none" stroke="#eeeeee"></use><use xlink:href="#bbburst-shape-11" width="23.625723746474943" opacity="0.16957894031049714" transform="matrix(1.0803553038728693,0.6287546559618945,-0.6287546559618945,1.0803553038728693,630.7644560879675,-413.498656056665)" fill="none" stroke="#eeeeee" filter="url(#bbburst-blur-3)"></use><use xlink:href="#bbburst-shape-11" width="4.910782568046452" opacity="0.9365871992920973" transform="matrix(0.7836351024202786,-0.6212213987418331,0.6212213987418331,0.7836351024202786,126.51498263450841,104.8671785513647)" fill="none" stroke="#eeeeee"></use><use xlink:href="#bbburst-shape-11" width="12.094307539298134" opacity="0.7465865648745547" transform="matrix(0.9091290155003428,0.41651462540393175,-0.41651462540393175,0.9091290155003428,479.80097668070135,-46.20440748311887)" fill="none" stroke="#eeeeee" filter="url(#bbburst-blur-1)"></use><use xlink:href="#bbburst-shape-9" width="9.39198043768715" opacity="0.8412062592832147" transform="matrix(0.8624413495479364,-0.5061570098200106,0.5061570098200106,0.8624413495479364,127.08853511972956,83.83355847231843)" fill="none" stroke="#eeeeee"></use><use xlink:href="#bbburst-shape-9" width="16.248780033629927" opacity="0.5730302493849154" transform="matrix(0.9926742467592152,-0.12082152052107575,0.12082152052107575,0.9926742467592152,509.58422047342935,-92.9614812288898)" fill="none" stroke="#eeeeee" filter="url(#bbburst-blur-1)"></use><use xlink:href="#bbburst-shape-13" width="31.901550042048612" opacity="0.2251064795642348" transform="matrix(1.2370801860095222,-0.17925572064133918,0.17925572064133918,1.2370801860095222,157.09896971919596,-406.0605229004048)" fill="none" stroke="#eeeeee" filter="url(#bbburst-blur-3)"></use><use xlink:href="#bbburst-shape-11" width="9.384501842115212" opacity="0.8130108804404697" transform="matrix(0.9869576716350893,0.16097998136614142,-0.16097998136614142,0.9869576716350893,532.7772061910504,46.19750934336628)" fill="none" stroke="#eeeeee"></use><use xlink:href="#bbburst-shape-11" width="21.922388616770867" opacity="0.42418105160228725" transform="matrix(0.9977003888330738,-0.06777856683593621,0.06777856683593621,0.9977003888330738,241.41551690451763,230.7667220150184)" fill="none" stroke="#eeeeee" filter="url(#bbburst-blur-2)"></use><use xlink:href="#bbburst-shape-11" width="8.212571117126952" opacity="0.8354367990249179" transform="matrix(0.8690169137528614,0.4947823800535462,-0.4947823800535462,0.8690169137528614,618.5541133050967,-19.732886867770446)" fill="none" stroke="#eeeeee"></use><use xlink:href="#bbburst-shape-9" width="6.467242838034721" opacity="0.9029279042856558" transform="matrix(0.7927462110712793,-0.6095518393312669,0.6095518393312669,0.7927462110712793,185.87028505351694,55.408592446972534)" fill="none" stroke="#eeeeee"></use><use xlink:href="#bbburst-shape-11" width="5.278714998481868" opacity="0.9301458991394648" transform="matrix(0.9943045649398784,-0.10657594540851627,0.10657594540851627,0.9943045649398784,379.95611244984326,21.25795252107082)" fill="none" stroke="#eeeeee"></use><use xlink:href="#bbburst-shape-11" width="9.26393732082052" opacity="0.7004999615139289" transform="matrix(0.8102052360915382,-0.586146291816177,0.586146291816177,0.8102052360915382,189.68621997159417,210.37746290372166)" fill="none" stroke="#eeeeee" filter="url(#bbburst-blur-1)"></use><use xlink:href="#bbburst-shape-13" width="25.3778176686201" opacity="0.5130515907224729" transform="matrix(0.9607316214017775,0.27747928145847534,-0.27747928145847534,0.9607316214017775,292.62745093912054,86.40894781273477)" fill="none" stroke="#eeeeee" filter="url(#bbburst-blur-2)"></use><use xlink:href="#bbburst-shape-13" width="12.841517017975868" opacity="0.7242839089406781" transform="matrix(0.9298681612046917,0.3678929229786915,-0.3678929229786915,0.9298681612046917,449.15957724119863,108.90672916399689)" fill="none" stroke="#eeeeee" filter="url(#bbburst-blur-1)"></use><use xlink:href="#bbburst-shape-9" width="7.969270007131582" opacity="0.8009451633476323" transform="matrix(0.9431119069294729,-0.3324754592565491,0.3324754592565491,0.9431119069294729,273.0787572209898,-65.00266179389325)" fill="none" stroke="#eeeeee"></use><use xlink:href="#bbburst-shape-11" width="33.76185752162896" opacity="0.2041387377903382" transform="matrix(1.2394408581977898,-0.16213068503502426,0.16213068503502426,1.2394408581977898,672.130404456562,-82.8274565334969)" fill="none" stroke="#eeeeee" filter="url(#bbburst-blur-3)"></use><use xlink:href="#bbburst-shape-11" width="13.212889171793117" opacity="0.7255347893458882" transform="matrix(0.768442997895425,-0.6399182439855047,0.6399182439855047,0.768442997895425,19.14340993619095,66.29596719310393)" fill="none" stroke="#eeeeee" filter="url(#bbburst-blur-1)"></use><use xlink:href="#bbburst-shape-13" width="28.221628445072536" opacity="0.3543331776969172" transform="matrix(0.9967695692160334,0.0803145434207469,-0.0803145434207469,0.9967695692160334,274.44817651167943,-252.417483694509)" fill="none" stroke="#eeeeee" filter="url(#bbburst-blur-2)"></use><use xlink:href="#bbburst-shape-13" width="19.02909051790052" opacity="0.6174345226848192" transform="matrix(0.9319163635128768,0.3626732571019481,-0.3626732571019481,0.9319163635128768,395.598746419221,-75.553684708108)" fill="none" stroke="#eeeeee" filter="url(#bbburst-blur-1)"></use><use xlink:href="#bbburst-shape-11" width="8.898290693861385" opacity="0.8451729070178171" transform="matrix(0.9895880559587247,0.143928730640661,-0.143928730640661,0.9895880559587247,513.968586688048,-30.641829824660363)" fill="none" stroke="#eeeeee"></use><use xlink:href="#bbburst-shape-13" width="11.385414665732723" opacity="0.7931210276136841" transform="matrix(0.9957144688126539,-0.09248079042230607,0.09248079042230607,0.9957144688126539,266.36396362198633,-17.514136766456147)" fill="none" stroke="#eeeeee"></use><use xlink:href="#bbburst-shape-11" width="5.144869164373141" opacity="0.9306205294141063" transform="matrix(0.8291183265959114,-0.5590731620305123,0.5590731620305123,0.8291183265959114,144.90069458032178,58.95446618502922)" fill="none" stroke="#eeeeee"></use><use xlink:href="#bbburst-shape-11" width="18.330856041547293" opacity="0.5435775033832705" transform="matrix(0.8292261394436142,-0.558913239835522,0.558913239835522,0.8292261394436142,362.32256673642394,4.7064198915877)" fill="none" stroke="#eeeeee" filter="url(#bbburst-blur-2)"></use><use xlink:href="#bbburst-shape-13" width="14.450797739043686" opacity="0.6512262418840042" transform="matrix(0.9773489691331244,0.21163410059444374,-0.21163410059444374,0.9773489691331244,631.1680720162734,39.89011756612706)" fill="none" stroke="#eeeeee" filter="url(#bbburst-blur-1)"></use><use xlink:href="#bbburst-shape-9" width="5.8248992040745" opacity="0.8960591326446086" transform="matrix(0.9429577228399332,0.3329125004209481,-0.3329125004209481,0.9429577228399332,534.2664928585139,68.42622790748686)" fill="none" stroke="#eeeeee"></use><use xlink:href="#bbburst-shape-13" width="9.571983566987253" opacity="0.8578867179030607" transform="matrix(0.7702672949639761,0.6377211728560368,-0.6377211728560368,0.7702672949639761,708.2338720697114,118.16437851788783)" fill="none" stroke="#eeeeee"></use><use xlink:href="#bbburst-shape-13" width="30.415959326519207" opacity="0.16832185572231062" transform="matrix(1.1779878733952038,-0.4181441977761324,0.4181441977761324,1.1779878733952038,-159.3832118232541,-59.066647789180536)" fill="none" stroke="#eeeeee" filter="url(#bbburst-blur-3)"></use><use xlink:href="#bbburst-shape-11" width="20.46777778480238" opacity="0.4429957350296374" transform="matrix(0.9676994686237406,-0.25210660131248097,0.25210660131248097,0.9676994686237406,50.24122777349032,-60.45871174389089)" fill="none" stroke="#eeeeee" filter="url(#bbburst-blur-2)"></use><use xlink:href="#bbburst-shape-11" width="30.91686765555702" opacity="0.17616963522995954" transform="matrix(1.248401936075582,-0.06318707148411296,0.06318707148411296,1.248401936075582,665.9474466339839,103.59659665140668)" fill="none" stroke="#eeeeee" filter="url(#bbburst-blur-3)"></use><use xlink:href="#bbburst-shape-9" width="9.544944464057014" opacity="0.7229584650420593" transform="matrix(0.9936577163436255,0.11244706643915175,-0.11244706643915175,0.9936577163436255,376.5346071948096,-105.22434902613196)" fill="none" stroke="#eeeeee" filter="url(#bbburst-blur-1)"></use><use xlink:href="#bbburst-shape-9" width="11.637138658390809" opacity="0.7779586520839966" transform="matrix(0.864856174759527,-0.5020197177206474,0.5020197177206474,0.864856174759527,289.3395761182589,87.19371493102312)" fill="none" stroke="#eeeeee"></use><use xlink:href="#bbburst-shape-11" width="28.1539152790229" opacity="0.14330381207474108" transform="matrix(1.090664911752042,-0.6106963650398703,0.6106963650398703,1.090664911752042,500.2122520647015,-165.80837151609933)" fill="none" stroke="#eeeeee" filter="url(#bbburst-blur-3)"></use><use xlink:href="#bbburst-shape-13" width="16.699246966190284" opacity="0.6614230118345976" transform="matrix(0.9654993859755819,0.26040532959364376,-0.26040532959364376,0.9654993859755819,592.7707722169763,129.38987673516493)" fill="none" stroke="#eeeeee" filter="url(#bbburst-blur-1)"></use><use xlink:href="#bbburst-shape-11" width="13.313924516332543" opacity="0.6521669961583949" transform="matrix(0.871975434116668,-0.48954963210796965,0.48954963210796965,0.871975434116668,117.24784524145784,-79.59114676058567)" fill="none" stroke="#eeeeee" filter="url(#bbburst-blur-1)"></use><use xlink:href="#bbburst-shape-9" width="20.745583560806296" opacity="0.06682903709887622" transform="matrix(1.4318991456980967,-1.0060640320322862,1.0060640320322862,1.4318991456980967,-216.51673298362715,207.20374875942252)" fill="none" stroke="#eeeeee" filter="url(#bbburst-blur-4)"></use><use xlink:href="#bbburst-shape-11" width="23.639469167444382" opacity="0.35122448398445627" transform="matrix(0.9462030399783867,-0.32357349572494254,0.32357349572494254,0.9462030399783867,185.03391681322873,307.4033228921703)" fill="none" stroke="#eeeeee" filter="url(#bbburst-blur-2)"></use><use xlink:href="#bbburst-shape-9" width="31.566473519736995" opacity="0.08068868418512332" transform="matrix(1.58307813738578,-0.7458978555614496,0.7458978555614496,1.58307813738578,-115.4048790661804,-588.2835262298944)" fill="none" stroke="#eeeeee" filter="url(#bbburst-blur-4)"></use><use xlink:href="#bbburst-shape-11" width="7.583254626180911" opacity="0.7896385494797896" transform="matrix(0.8372740217852742,0.5467835151534034,-0.5467835151534034,0.8372740217852742,617.68030586994,157.5749971114878)" fill="none" stroke="#eeeeee"></use><use xlink:href="#bbburst-shape-9" width="8.872101705449602" opacity="0.759959899768917" transform="matrix(0.96047130859581,0.27837899591070503,-0.27837899591070503,0.96047130859581,504.74693618776007,-93.47310914358388)" fill="none" stroke="#eeeeee" filter="url(#bbburst-blur-1)"></use><use xlink:href="#bbburst-shape-13" width="33.220315311381974" opacity="0.32302473564971323" transform="matrix(1.071986540863356,0.6429190121685752,-0.6429190121685752,1.071986540863356,938.107325109635,20.15794488073385)" fill="none" stroke="#eeeeee" filter="url(#bbburst-blur-3)"></use><use xlink:href="#bbburst-shape-11" width="7.3555488362915735" opacity="0.8609999654026025" transform="matrix(0.7836154875834419,0.6212461409291526,-0.6212461409291526,0.7836154875834419,594.5512634890284,48.155454403082786)" fill="none" stroke="#eeeeee"></use><use xlink:href="#bbburst-shape-13" width="9.542365405873356" opacity="0.7702255969243561" transform="matrix(0.9999998968952702,0.00045410290548263024,-0.00045410290548263024,0.9999998968952702,362.3651345939516,97.9736504206245)" fill="none" stroke="#eeeeee" filter="url(#bbburst-blur-1)"></use><use xlink:href="#bbburst-shape-11" width="15.897894335905463" opacity="0.587603364735424" transform="matrix(0.7852754988675484,-0.6191465019511319,0.6191465019511319,0.7852754988675484,330.10145133159745,67.5013532933686)" fill="none" stroke="#eeeeee" filter="url(#bbburst-blur-1)"></use><use xlink:href="#bbburst-shape-9" width="24.4088286324293" opacity="0.03804416390858556" transform="matrix(1.6377366426701214,-0.6166998372430461,0.6166998372430461,1.6377366426701214,505.6235765893879,-27.13656039395414)" fill="none" stroke="#eeeeee" filter="url(#bbburst-blur-4)"></use><use xlink:href="#bbburst-shape-11" width="28.226056733155627" opacity="0.10109966237593193" transform="matrix(1.6306283734802245,0.6352567257426225,-0.6352567257426225,1.6306283734802245,377.05843496260684,52.79329599824223)" fill="none" stroke="#eeeeee" filter="url(#bbburst-blur-4)"></use><use xlink:href="#bbburst-shape-9" width="26.970891907743223" opacity="0.07088808626008558" transform="matrix(1.7411066819966756,-0.1762030700825818,0.1762030700825818,1.7411066819966756,582.2156612765689,-608.2568488257209)" fill="none" stroke="#eeeeee" filter="url(#bbburst-blur-4)"></use><use xlink:href="#bbburst-shape-9" width="8.163900915306543" opacity="0.763819725530142" transform="matrix(0.999863498221555,-0.016522255419725414,0.016522255419725414,0.999863498221555,476.86496011411833,60.31315360497558)" fill="none" stroke="#eeeeee" filter="url(#bbburst-blur-1)"></use><use xlink:href="#bbburst-shape-11" width="18.138099814636508" opacity="0.40250388228501577" transform="matrix(0.8940810787135478,0.44790515143992127,-0.44790515143992127,0.8940810787135478,831.3891387042793,-29.525438868598087)" fill="none" stroke="#eeeeee" filter="url(#bbburst-blur-2)"></use><use xlink:href="#bbburst-shape-13" width="21.514265711521798" opacity="0.5081686445086576" transform="matrix(0.9673179079389185,-0.25356668744272004,0.25356668744272004,0.9673179079389185,387.7044026507554,213.47905590747592)" fill="none" stroke="#eeeeee" filter="url(#bbburst-blur-2)"></use><use xlink:href="#bbburst-shape-11" width="6.362751803145493" opacity="0.904665889806491" transform="matrix(0.9518811171762528,-0.3064675166527262,0.3064675166527262,0.9518811171762528,294.16275778250065,-17.911694797458324)" fill="none" stroke="#eeeeee"></use><use xlink:href="#bbburst-shape-13" width="7.393940379575424" opacity="0.8963783882787794" transform="matrix(0.9947909152630523,-0.10193642582560355,0.10193642582560355,0.9947909152630523,313.9976374530363,23.624660735329257)" fill="none" stroke="#eeeeee"></use><use xlink:href="#bbburst-shape-9" width="10.823104379899796" opacity="0.6705185935596127" transform="matrix(0.9920655186835932,-0.12572194175661364,0.12572194175661364,0.9920655186835932,429.5195511208649,-117.57028546895515)" fill="none" stroke="#eeeeee" filter="url(#bbburst-blur-1)"></use><use xlink:href="#bbburst-shape-13" width="9.473206861231326" opacity="0.7188960719213485" transform="matrix(0.814075306642306,-0.5807593263265218,0.5807593263265218,0.814075306642306,287.8192767771619,102.2334415287965)" fill="none" stroke="#eeeeee" filter="url(#bbburst-blur-1)"></use><use xlink:href="#bbburst-shape-13" width="17.066210567544186" opacity="0.588149090561837" transform="matrix(0.9964763264663764,-0.0838744942880473,0.0838744942880473,0.9964763264663764,449.79076260939814,-158.85010401209263)" fill="none" stroke="#eeeeee" filter="url(#bbburst-blur-1)"></use><use xlink:href="#bbburst-shape-9" width="5.14583420259841" opacity="0.9035310647923119" transform="matrix(0.9162942525494143,0.4005057337228895,-0.4005057337228895,0.9162942525494143,600.0759740314043,42.53011072665993)" fill="none" stroke="#eeeeee"></use><use xlink:href="#bbburst-shape-13" width="10.884995030428321" opacity="0.7426962237149024" transform="matrix(0.976659535619181,-0.2147932761613497,0.2147932761613497,0.976659535619181,382.7813588929387,-78.53674169881253)" fill="none" stroke="#eeeeee" filter="url(#bbburst-blur-1)"></use><use xlink:href="#bbburst-shape-11" width="11.85867077069196" opacity="0.8195158899199236" transform="matrix(0.9164595475847396,0.400127351777874,-0.400127351777874,0.9164595475847396,473.7597521399154,37.8723987485335)" fill="none" stroke="#eeeeee"></use><use xlink:href="#bbburst-shape-11" width="37.87581688994778" opacity="-0.11285575112999413" transform="matrix(1.553777217362168,-0.8051561083456293,0.8051561083456293,1.553777217362168,-307.1540308788922,-559.9612221217988)" fill="none" stroke="#eeeeee" filter="url(#bbburst-blur-4)"></use><use xlink:href="#bbburst-shape-11" width="21.176005189551212" opacity="0.4520841995400233" transform="matrix(0.8032673442171615,0.595618647889997,-0.595618647889997,0.8032673442171615,850.0402182002267,-38.888184487018975)" fill="none" stroke="#eeeeee" filter="url(#bbburst-blur-2)"></use><use xlink:href="#bbburst-shape-9" width="11.835780648093245" opacity="0.718020046227893" transform="matrix(0.93424756191642,0.3566251436077173,-0.3566251436077173,0.93424756191642,630.0664252357747,110.53244553192354)" fill="none" stroke="#eeeeee" filter="url(#bbburst-blur-1)"></use><use xlink:href="#bbburst-shape-9" width="28.567951950972216" opacity="0.1592753078360185" transform="matrix(1.148663074107265,-0.49302448436406066,0.49302448436406066,1.148663074107265,398.15855289451423,260.7907840285937)" fill="none" stroke="#eeeeee" filter="url(#bbburst-blur-3)"></use><use xlink:href="#bbburst-shape-9" width="23.86678126767244" opacity="0.46171106513996707" transform="matrix(0.9988022423305696,0.04892934411399998,-0.04892934411399998,0.9988022423305696,167.41833282187594,30.703527354285086)" fill="none" stroke="#eeeeee" filter="url(#bbburst-blur-2)"></use><use xlink:href="#bbburst-shape-11" width="25.36973808325006" opacity="0.2762146228951382" transform="matrix(1.1201293981971208,-0.5548063908198568,0.5548063908198568,1.1201293981971208,380.26301878036554,201.88438791261444)" fill="none" stroke="#eeeeee" filter="url(#bbburst-blur-3)"></use><use xlink:href="#bbburst-shape-9" width="20.03176128342668" opacity="0.5390139419189126" transform="matrix(0.8593624672254992,0.5113669425413641,-0.5113669425413641,0.8593624672254992,454.73624404446326,-100.88752547090974)" fill="none" stroke="#eeeeee" filter="url(#bbburst-blur-2)"></use><use xlink:href="#bbburst-shape-11" width="16.771607373132923" opacity="0.4153735034285766" transform="matrix(0.7231686732690401,0.6906714631445955,-0.6906714631445955,0.7231686732690401,877.0850945325154,267.4931917088594)" fill="none" stroke="#eeeeee" filter="url(#bbburst-blur-2)"></use><use xlink:href="#bbburst-shape-11" width="16.842636384974274" opacity="0.6129641850101922" transform="matrix(0.9993732843808748,0.03539828337339586,-0.03539828337339586,0.9993732843808748,541.6421588026203,108.67338061586918)" fill="none" stroke="#eeeeee" filter="url(#bbburst-blur-1)"></use><use xlink:href="#bbburst-shape-13" width="27.392355095456807" opacity="0.019703294039314367" transform="matrix(1.7432776100264968,0.15324220822053355,-0.15324220822053355,1.7432776100264968,675.1494800359468,-671.0061142831812)" fill="none" stroke="#eeeeee" filter="url(#bbburst-blur-4)"></use><use xlink:href="#bbburst-shape-11" width="12.073966776203191" opacity="0.7751522624123203" transform="matrix(0.9194600319218765,-0.3931834809579641,0.3931834809579641,0.9194600319218765,143.73493100549933,73.40706991614587)" fill="none" stroke="#eeeeee" filter="url(#bbburst-blur-1)"></use><use xlink:href="#bbburst-shape-13" width="5.843585965716092" opacity="0.993310528483826" transform="matrix(0.8583028494070049,0.513143467950062,-0.513143467950062,0.8583028494070049,605.0783313191255,57.0870978381721)" fill="none" stroke="#eeeeee"></use><use xlink:href="#bbburst-shape-11" width="16.064739137919865" opacity="0.5504969931201126" transform="matrix(0.736087231721173,0.6768866871914827,-0.6768866871914827,0.736087231721173,723.3679348700434,-93.69109121763736)" fill="none" stroke="#eeeeee" filter="url(#bbburst-blur-2)"></use><use xlink:href="#bbburst-shape-11" width="7.6345458474701555" opacity="0.7658596175772501" transform="matrix(0.8063381776525638,0.5914547685664073,-0.5914547685664073,0.8063381776525638,730.3441576099544,33.47877725445505)" fill="none" stroke="#eeeeee" filter="url(#bbburst-blur-1)"></use><use xlink:href="#bbburst-shape-11" width="20.63173552888351" opacity="0.3928255794141162" transform="matrix(0.9702901446715785,0.24194428109217064,-0.24194428109217064,0.9702901446715785,606.2145398874916,254.8978402511849)" fill="none" stroke="#eeeeee" filter="url(#bbburst-blur-2)"></use><use xlink:href="#bbburst-shape-11" width="9.360030796195815" opacity="0.6802949748296054" transform="matrix(0.93797101597294,-0.34671367609987747,0.34671367609987747,0.93797101597294,398.552899051621,1.2726122904407475)" fill="none" stroke="#eeeeee" filter="url(#bbburst-blur-1)"></use><use xlink:href="#bbburst-shape-11" width="22.367694113738825" opacity="0.22069818610385694" transform="matrix(1.2111853801502768,-0.3090792372680981,0.3090792372680981,1.2111853801502768,305.5035745004982,-429.43446580512494)" fill="none" stroke="#eeeeee" filter="url(#bbburst-blur-3)"></use><use xlink:href="#bbburst-shape-13" width="7.189422879004936" opacity="0.9110178931232324" transform="matrix(0.9969493673686185,-0.07805100193662762,0.07805100193662762,0.9969493673686185,336.66733223250367,-26.59688047946588)" fill="none" stroke="#eeeeee"></use><use xlink:href="#bbburst-shape-11" width="28.483118600121394" opacity="0.3596870886806913" transform="matrix(0.99335972292697,-0.1150498190631059,0.1150498190631059,0.99335972292697,518.6538212327408,-221.97523337408535)" fill="none" stroke="#eeeeee" filter="url(#bbburst-blur-2)"></use><use xlink:href="#bbburst-shape-11" width="27.779426593129326" opacity="0.1511745640760802" transform="matrix(1.201577933583115,-0.34454385718821257,0.34454385718821257,1.201577933583115,-51.892487805520005,163.59396549677916)" fill="none" stroke="#eeeeee" filter="url(#bbburst-blur-3)"></use><use xlink:href="#bbburst-shape-13" width="36.42303261347791" opacity="0.11063891982881413" transform="matrix(1.7492322133720608,-0.05183303677657117,0.05183303677657117,1.7492322133720608,51.4359040375366,-568.1352466108675)" fill="none" stroke="#eeeeee" filter="url(#bbburst-blur-4)"></use><use xlink:href="#bbburst-shape-13" width="11.088693226623493" opacity="0.8099622340623871" transform="matrix(0.8731885605320564,0.4873825373933245,-0.4873825373933245,0.8731885605320564,575.1941628069677,-36.18347430523312)" fill="none" stroke="#eeeeee"></use><use xlink:href="#bbburst-shape-9" width="18.576951882565048" opacity="0.5177403814486307" transform="matrix(0.9984902375081295,0.05492946022817963,-0.05492946022817963,0.9984902375081295,356.27939717232516,-209.58453860385825)" fill="none" stroke="#eeeeee" filter="url(#bbburst-blur-2)"></use><use xlink:href="#bbburst-shape-11" width="7.238629890987482" opacity="0.9685127802454934" transform="matrix(0.9218559041251209,-0.3875328270348926,0.3875328270348926,0.9218559041251209,241.1531754542485,18.41250808399792)" fill="none" stroke="#eeeeee"></use><use xlink:href="#bbburst-shape-13" width="15.355018179774627" opacity="0.6439191576217109" transform="matrix(0.97259678182276,-0.23249838706539577,0.23249838706539577,0.97259678182276,347.3051538625776,165.6958587462525)" fill="none" stroke="#eeeeee" filter="url(#bbburst-blur-1)"></use><use xlink:href="#bbburst-shape-11" width="13.946933342701364" opacity="0.6314269626409158" transform="matrix(0.7931409811437811,0.6090380809360613,-0.6090380809360613,0.7931409811437811,794.7995020994798,23.732791757718417)" fill="none" stroke="#eeeeee" filter="url(#bbburst-blur-1)"></use><use xlink:href="#bbburst-shape-13" width="13.610965664710394" opacity="0.5843884014254734" transform="matrix(0.9774735007441774,-0.21105817999528642,0.21105817999528642,0.9774735007441774,282.8621303346989,195.64734452648986)" fill="none" stroke="#eeeeee" filter="url(#bbburst-blur-1)"></use><use xlink:href="#bbburst-shape-11" width="19.169120042062776" opacity="0.6250800685734283" transform="matrix(0.9170340408415368,0.39880893663237094,-0.39880893663237094,0.9170340408415368,384.7441694071431,-0.5103627149468934)" fill="none" stroke="#eeeeee" filter="url(#bbburst-blur-1)"></use><use xlink:href="#bbburst-shape-9" width="18.69438218165161" opacity="0.4960081553921799" transform="matrix(0.9702006778408774,-0.24230279552060888,0.24230279552060888,0.9702006778408774,228.89549447589707,231.31935629089247)" fill="none" stroke="#eeeeee" filter="url(#bbburst-blur-2)"></use><use xlink:href="#bbburst-shape-9" width="7.673814751314176" opacity="0.8246086628407345" transform="matrix(0.862227012618315,-0.5065220416835737,0.5065220416835737,0.862227012618315,158.9267670141234,-13.668780851096983)" fill="none" stroke="#eeeeee"></use><use xlink:href="#bbburst-shape-13" width="27.488893263734095" opacity="0.09785028681700347" transform="matrix(1.7138431402768548,0.3538950275519121,-0.3538950275519121,1.7138431402768548,152.0582145692967,-114.632980719957)" fill="none" stroke="#eeeeee" filter="url(#bbburst-blur-4)"></use><use xlink:href="#bbburst-shape-9" width="15.464942459108629" opacity="0.5997655672617265" transform="matrix(0.8295768440542448,-0.5583925678310906,0.5583925678310906,0.8295768440542448,294.66011301143953,-57.75410500298074)" fill="none" stroke="#eeeeee" filter="url(#bbburst-blur-1)"></use><use xlink:href="#bbburst-shape-9" width="25.440801671565524" opacity="0.33742743168236944" transform="matrix(0.8698841433145772,0.4932560969819471,-0.4932560969819471,0.8698841433145772,296.58667939140514,115.9901459981927)" fill="none" stroke="#eeeeee" filter="url(#bbburst-blur-2)"></use><use xlink:href="#bbburst-shape-11" width="21.720834083578104" opacity="0.5177283374681572" transform="matrix(0.9997978245682742,0.02010746101691089,-0.02010746101691089,0.9997978245682742,557.2962855223216,146.09122461614447)" fill="none" stroke="#eeeeee" filter="url(#bbburst-blur-2)"></use><use xlink:href="#bbburst-shape-9" width="21.07416551104879" opacity="0.4782142938703289" transform="matrix(0.9973451569321751,-0.07281921411231454,0.07281921411231454,0.9973451569321751,474.46986085057904,-203.51971066302102)" fill="none" stroke="#eeeeee" filter="url(#bbburst-blur-2)"></use><use xlink:href="#bbburst-shape-11" width="7.0765878363073" opacity="0.866861644516248" transform="matrix(0.9693987052266265,-0.24549165017356495,0.24549165017356495,0.9693987052266265,356.5911979705366,-1.0345312985967325)" fill="none" stroke="#eeeeee"></use><use xlink:href="#bbburst-shape-13" width="6.072654526710581" opacity="0.8662358058227075" transform="matrix(0.7501441715839177,-0.661274316633179,0.661274316633179,0.7501441715839177,167.4121679949235,52.41540905954622)" fill="none" stroke="#eeeeee"></use><use xlink:href="#bbburst-shape-9" width="9.474107243321242" opacity="0.8199730759937073" transform="matrix(0.9998262881788326,0.018638494213268117,-0.018638494213268117,0.9998262881788326,461.45291270331603,-55.8809668763879)" fill="none" stroke="#eeeeee"></use><use xlink:href="#bbburst-shape-9" width="9.200140136244023" opacity="0.8690937731768125" transform="matrix(0.9421668731137685,0.33514412303817026,-0.33514412303817026,0.9421668731137685,470.87755427140553,23.729387340583003)" fill="none" stroke="#eeeeee"></use><use xlink:href="#bbburst-shape-11" width="22.305345427099766" opacity="0.38655041462443807" transform="matrix(0.9218285896370172,0.3875977958242638,-0.3875977958242638,0.9218285896370172,797.4903710962133,137.9807853171627)" fill="none" stroke="#eeeeee" filter="url(#bbburst-blur-2)"></use><use xlink:href="#bbburst-shape-9" width="9.048780829532436" opacity="0.6971573527539533" transform="matrix(0.9028313187587037,-0.42999489516553563,0.42999489516553563,0.9028313187587037,350.1032162552411,-10.647466413079712)" fill="none" stroke="#eeeeee" filter="url(#bbburst-blur-1)"></use><use xlink:href="#bbburst-shape-9" width="6.73066452873769" opacity="0.8697333299565885" transform="matrix(0.9865418851612648,-0.16350874234259719,0.16350874234259719,0.9865418851612648,347.00198804661636,62.3580133765812)" fill="none" stroke="#eeeeee"></use><use xlink:href="#bbburst-shape-9" width="18.956283404985307" opacity="0.4405642488713052" transform="matrix(0.7603250381960444,0.6495427901933665,-0.6495427901933665,0.7603250381960444,732.1785896434026,-149.25228640990218)" fill="none" stroke="#eeeeee" filter="url(#bbburst-blur-2)"></use><use xlink:href="#bbburst-shape-11" width="12.774029042422816" opacity="0.6619814346653612" transform="matrix(0.7494785072873754,-0.6620286754471346,0.6620286754471346,0.7494785072873754,25.29870587935676,-5.746504087720837)" fill="none" stroke="#eeeeee" filter="url(#bbburst-blur-1)"></use><use xlink:href="#bbburst-shape-11" width="5.826341402692482" opacity="0.9293613248380025" transform="matrix(0.8423624686974477,0.5389113761370616,-0.5389113761370616,0.8423624686974477,615.6213932758085,93.11308951269109)" fill="none" stroke="#eeeeee"></use><use xlink:href="#bbburst-shape-11" width="19.484078060102917" opacity="0.5651161061890553" transform="matrix(0.8553674136900289,0.5180218022412096,-0.5180218022412096,0.8553674136900289,604.3632808760726,-143.03273193071755)" fill="none" stroke="#eeeeee" filter="url(#bbburst-blur-1)"></use><use xlink:href="#bbburst-shape-13" width="16.673547504549774" opacity="0.5082278326686303" transform="matrix(0.9558595672972823,0.29382390577734196,-0.29382390577734196,0.9558595672972823,683.0348050796683,-122.19548212418471)" fill="none" stroke="#eeeeee" filter="url(#bbburst-blur-2)"></use><use xlink:href="#bbburst-shape-9" width="22.383428927379576" opacity="0.25477445645882835" transform="matrix(1.0768377700486393,-0.6347601255566342,0.6347601255566342,1.0768377700486393,235.7739482934552,-343.3122572957948)" fill="none" stroke="#eeeeee" filter="url(#bbburst-blur-3)"></use><use xlink:href="#bbburst-shape-11" width="19.59673457448448" opacity="0.14337172985612756" transform="matrix(1.0176199461961006,0.7259129735056712,-0.7259129735056712,1.0176199461961006,580.2309816965793,-386.6105412642403)" fill="none" stroke="#eeeeee" filter="url(#bbburst-blur-3)"></use><use xlink:href="#bbburst-shape-11" width="16.97201431884763" opacity="0.6265376391724342" transform="matrix(0.864699772131581,-0.5022890642604037,0.5022890642604037,0.864699772131581,30.662659546779935,106.47257649284427)" fill="none" stroke="#eeeeee" filter="url(#bbburst-blur-1)"></use><use xlink:href="#bbburst-shape-11" width="7.61480228718594" opacity="0.818945461736906" transform="matrix(0.9704916209281045,-0.24113484548762432,0.24113484548762432,0.9704916209281045,284.4200114795489,92.6306832308735)" fill="none" stroke="#eeeeee"></use><use xlink:href="#bbburst-shape-11" width="22.285904591266956" opacity="0.5092528302561004" transform="matrix(0.9151829585683954,-0.40303864870009526,0.40303864870009526,0.9151829585683954,48.441134676997024,-89.7429870907851)" fill="none" stroke="#eeeeee" filter="url(#bbburst-blur-2)"></use><use xlink:href="#bbburst-shape-9" width="7.473967622499401" opacity="0.8444214704000593" transform="matrix(0.9954514463006636,0.09527023699937424,-0.09527023699937424,0.9954514463006636,468.8512556659074,62.35641208308874)" fill="none" stroke="#eeeeee"></use><use xlink:href="#bbburst-shape-9" width="32.81680040230361" opacity="0.30893361222406324" transform="matrix(0.9778087184954566,0.7787105431636796,-0.7787105431636796,0.9778087184954566,459.5188483478315,198.28934274089636)" fill="none" stroke="#eeeeee" filter="url(#bbburst-blur-3)"></use><use xlink:href="#bbburst-shape-11" width="25.519624685092403" opacity="0.390635015810208" transform="matrix(0.7689565089773798,0.6393010928360132,-0.6393010928360132,0.7689565089773798,566.2904102443313,-178.33012938122368)" fill="none" stroke="#eeeeee" filter="url(#bbburst-blur-2)"></use><use xlink:href="#bbburst-shape-11" width="21.280971182138096" opacity="0.45911492356332906" transform="matrix(0.7985376500730492,-0.6019448657608206,0.6019448657608206,0.7985376500730492,-48.61371437701925,226.67270113335047)" fill="none" stroke="#eeeeee" filter="url(#bbburst-blur-2)"></use><use xlink:href="#bbburst-shape-9" width="25.12307160145449" opacity="0.3611365744534424" transform="matrix(0.822977709816357,0.5680736652454716,-0.5680736652454716,0.822977709816357,668.5822636852542,-219.28726397187444)" fill="none" stroke="#eeeeee" filter="url(#bbburst-blur-2)"></use><use xlink:href="#bbburst-shape-9" width="30.065448438314146" opacity="0.029085648779752615" transform="matrix(1.2454824200210404,1.2293386601821863,-1.2293386601821863,1.2454824200210404,1214.5672014377196,-389.69322667577364)" fill="none" stroke="#eeeeee" filter="url(#bbburst-blur-4)"></use><use xlink:href="#bbburst-shape-9" width="7.583396190486818" opacity="0.8572108574395986" transform="matrix(0.9490094460734021,0.31524763482610707,-0.31524763482610707,0.9490094460734021,472.2307963778641,59.15284219512637)" fill="none" stroke="#eeeeee"></use><use xlink:href="#bbburst-shape-9" width="23.270281474675897" opacity="0.3813300760602444" transform="matrix(0.998042517491014,0.06253905403984755,-0.06253905403984755,0.998042517491014,408.46868248092926,278.2563300351516)" fill="none" stroke="#eeeeee" filter="url(#bbburst-blur-2)"></use><use xlink:href="#bbburst-shape-13" width="6.417255004484079" opacity="0.8737280858577965" transform="matrix(0.9788128573757461,-0.20475690522160003,0.20475690522160003,0.9788128573757461,360.97539677298573,-24.20057277236873)" fill="none" stroke="#eeeeee"></use><use xlink:href="#bbburst-shape-11" width="15.911979637623508" opacity="0.4816040525862275" transform="matrix(0.8460527332982857,-0.5330992144793498,0.5330992144793498,0.8460527332982857,164.29772643208776,298.4012646534348)" fill="none" stroke="#eeeeee" filter="url(#bbburst-blur-2)"></use><use xlink:href="#bbburst-shape-9" width="8.150137032997392" opacity="0.8007367614470557" transform="matrix(0.9171655899267493,-0.3985063119378636,0.3985063119378636,0.9171655899267493,276.8283764742252,114.96444162501246)" fill="none" stroke="#eeeeee"></use><use xlink:href="#bbburst-shape-11" width="7.369974103584236" opacity="0.9009715776596277" transform="matrix(0.926381127448984,0.37658731617826596,-0.37658731617826596,0.926381127448984,570.5095541525114,65.98711861776246)" fill="none" stroke="#eeeeee"></use><use xlink:href="#bbburst-shape-11" width="8.510671779569838" opacity="0.8578437647100984" transform="matrix(0.9735760116006412,0.22836319676293734,-0.22836319676293734,0.9735760116006412,470.01969335690944,-52.12138217678995)" fill="none" stroke="#eeeeee"></use><use xlink:href="#bbburst-shape-11" width="11.019273744563959" opacity="0.7598570893474164" transform="matrix(0.9833875572140233,-0.18151835256148632,0.18151835256148632,0.9833875572140233,213.99314113246663,12.350942760447595)" fill="none" stroke="#eeeeee" filter="url(#bbburst-blur-1)"></use><use xlink:href="#bbburst-shape-11" width="6.682844672956393" opacity="0.9081760914420725" transform="matrix(0.938859947274587,0.34429928754436845,-0.34429928754436845,0.938859947274587,493.5098112938032,27.46688070873904)" fill="none" stroke="#eeeeee"></use><use xlink:href="#bbburst-shape-13" width="6.555481672269803" opacity="0.9497274532105449" transform="matrix(0.902128302549512,-0.43146787335691184,0.43146787335691184,0.902128302549512,234.77075493518046,60.69716940855034)" fill="none" stroke="#eeeeee"></use><use xlink:href="#bbburst-shape-9" width="9.563095438733859" opacity="0.7203224750607726" transform="matrix(0.9305666039002314,0.366122651177976,-0.366122651177976,0.9305666039002314,648.5873248221247,-40.996371284803786)" fill="none" stroke="#eeeeee" filter="url(#bbburst-blur-1)"></use><use xlink:href="#bbburst-shape-9" width="32.104838999441895" opacity="0.3746595801003907" transform="matrix(0.918571311609999,0.3952552915358452,-0.3952552915358452,0.918571311609999,765.3863656940744,-146.97102969105262)" fill="none" stroke="#eeeeee" filter="url(#bbburst-blur-2)"></use><use xlink:href="#bbburst-shape-13" width="7.612819504947269" opacity="0.8708514667837131" transform="matrix(0.9831195750065823,0.18296420753490814,-0.18296420753490814,0.9831195750065823,527.135167410502,13.072975135471836)" fill="none" stroke="#eeeeee"></use><use xlink:href="#bbburst-shape-11" width="37.61957663611027" opacity="0.19330987305196612" transform="matrix(1.2076101944790683,-0.3227655777653914,0.3227655777653914,1.2076101944790683,433.89087687340077,-389.3749223751437)" fill="none" stroke="#eeeeee" filter="url(#bbburst-blur-3)"></use><use xlink:href="#bbburst-shape-13" width="5.363395796366549" opacity="0.8941231339992223" transform="matrix(0.7279301235273818,-0.6856513219278518,0.6856513219278518,0.7279301235273818,114.22270690889997,63.992001237991246)" fill="none" stroke="#eeeeee"></use><use xlink:href="#bbburst-shape-9" width="14.948246840601232" opacity="0.6576485502152007" transform="matrix(0.87461866400536,-0.4848115021051782,0.4848115021051782,0.87461866400536,164.1737460927472,203.6436131704849)" fill="none" stroke="#eeeeee" filter="url(#bbburst-blur-1)"></use><use xlink:href="#bbburst-shape-13" width="10.13120123499704" opacity="0.7227584010378458" transform="matrix(0.8656840376949795,0.5005907978380321,-0.5005907978380321,0.8656840376949795,710.2878768089388,100.87926938152714)" fill="none" stroke="#eeeeee" filter="url(#bbburst-blur-1)"></use><use xlink:href="#bbburst-shape-9" width="28.31555253459821" opacity="0.31567295883431523" transform="matrix(1.1066937383062212,0.5811445341683952,-0.5811445341683952,1.1066937383062212,428.60541518968904,192.55639460670358)" fill="none" stroke="#eeeeee" filter="url(#bbburst-blur-3)"></use><use xlink:href="#bbburst-shape-11" width="17.087700246145456" opacity="0.5814031816884662" transform="matrix(0.9838306963310647,0.1791009797760259,-0.1791009797760259,0.9838306963310647,301.10140660836845,100.54741164350258)" fill="none" stroke="#eeeeee" filter="url(#bbburst-blur-1)"></use><use xlink:href="#bbburst-shape-9" width="7.5561116061085665" opacity="0.9162846593828339" transform="matrix(0.9951816428357053,-0.09804844599903995,0.09804844599903995,0.9951816428357053,360.5361747447496,-35.259967426786204)" fill="none" stroke="#eeeeee"></use><use xlink:href="#bbburst-shape-9" width="25.997687795051345" opacity="0.2790241332879245" transform="matrix(1.1100793038089327,-0.5746511457006547,0.5746511457006547,1.1100793038089327,473.2875545884526,-102.64384723606679)" fill="none" stroke="#eeeeee" filter="url(#bbburst-blur-3)"></use><use xlink:href="#bbburst-shape-9" width="20.39711462524092" opacity="0.5248449813614653" transform="matrix(0.9005978887428551,0.43465324431310987,-0.43465324431310987,0.9005978887428551,352.31185618620134,10.816558385460326)" fill="none" stroke="#eeeeee" filter="url(#bbburst-blur-2)"></use><use xlink:href="#bbburst-shape-11" width="32.181739452895144" opacity="0.01671483821026365" transform="matrix(1.2588463978324558,-1.215650338980848,1.215650338980848,1.2588463978324558,-374.9620308470491,-436.6279035353531)" fill="none" stroke="#eeeeee" filter="url(#bbburst-blur-4)"></use><use xlink:href="#bbburst-shape-13" width="9.354065221775532" opacity="0.8478577425083943" transform="matrix(0.7219498971728845,-0.6919453345258291,0.6919453345258291,0.7219498971728845,121.67245699017894,46.01666415763623)" fill="none" stroke="#eeeeee"></use><use xlink:href="#bbburst-shape-11" width="7.487464521314206" opacity="0.8557435988569139" transform="matrix(0.9187145584007952,0.39492222042122666,-0.39492222042122666,0.9187145584007952,600.3561077347883,76.96245046460734)" fill="none" stroke="#eeeeee"></use><use xlink:href="#bbburst-shape-13" width="13.838916560584071" opacity="0.681578111340156" transform="matrix(0.8294885144018527,-0.5585237725248653,0.5585237725248653,0.8294885144018527,27.573490759263564,73.95842360650505)" fill="none" stroke="#eeeeee" filter="url(#bbburst-blur-1)"></use><use xlink:href="#bbburst-shape-11" width="6.966339431007636" opacity="0.9290818878544301" transform="matrix(0.8495939084436167,-0.5274373808666764,0.5274373808666764,0.8495939084436167,172.0265533082674,90.60565896734954)" fill="none" stroke="#eeeeee"></use><use xlink:href="#bbburst-shape-11" width="5.674304703880295" opacity="0.9350174516582924" transform="matrix(0.7973940506475287,0.6034589696010214,-0.6034589696010214,0.7973940506475287,668.400372260301,79.91906705514555)" fill="none" stroke="#eeeeee"></use><use xlink:href="#bbburst-shape-9" width="18.499352255149773" opacity="0.5611550042162334" transform="matrix(0.9049019126031634,-0.4256201693612943,0.4256201693612943,0.9049019126031634,277.55459436274316,231.17015318811985)" fill="none" stroke="#eeeeee" filter="url(#bbburst-blur-1)"></use><use xlink:href="#bbburst-shape-9" width="16.783142365346166" opacity="0.4921071616772742" transform="matrix(0.7836477293688057,0.6212054702392076,-0.6212054702392076,0.7836477293688057,866.7744112610067,39.9866143814333)" fill="none" stroke="#eeeeee" filter="url(#bbburst-blur-2)"></use><use xlink:href="#bbburst-shape-13" width="32.30799870779298" opacity="0.24756677573357044" transform="matrix(1.2443228646269915,0.1189983553099694,-0.1189983553099694,1.2443228646269915,270.7639362479342,200.48319375820313)" fill="none" stroke="#eeeeee" filter="url(#bbburst-blur-3)"></use><use xlink:href="#bbburst-shape-9" width="20.88954011558699" opacity="0.5510480310383452" transform="matrix(0.9821643036290034,-0.18802468103138684,0.18802468103138684,0.9821643036290034,127.57790522675063,-67.67993225868594)" fill="none" stroke="#eeeeee" filter="url(#bbburst-blur-2)"></use><use xlink:href="#bbburst-shape-11" width="8.179791381452471" opacity="0.7029001467453986" transform="matrix(0.7816907191691023,0.6236662725888675,-0.6236662725888675,0.7816907191691023,664.154505119172,-47.81151996857301)" fill="none" stroke="#eeeeee" filter="url(#bbburst-blur-1)"></use><use xlink:href="#bbburst-shape-11" width="15.920322413632691" opacity="0.7150324402502903" transform="matrix(0.9966970782650277,0.08120920008199368,-0.08120920008199368,0.9966970782650277,315.54669878213156,-67.05016333779747)" fill="none" stroke="#eeeeee" filter="url(#bbburst-blur-1)"></use><use xlink:href="#bbburst-shape-13" width="17.46896543708852" opacity="0.15833771470045888" transform="matrix(0.9262021456897074,-0.8394340863461419,0.8394340863461419,0.9262021456897074,430.07698879624184,-23.303164334919927)" fill="none" stroke="#eeeeee" filter="url(#bbburst-blur-3)"></use><use xlink:href="#bbburst-shape-11" width="12.879318270330987" opacity="0.6803320690540366" transform="matrix(0.8063278838742471,-0.5914688019556725,0.5914688019556725,0.8063278838742471,112.63616410641765,-55.32604790085708)" fill="none" stroke="#eeeeee" filter="url(#bbburst-blur-1)"></use><use xlink:href="#bbburst-shape-9" width="12.880233147731666" opacity="0.6298264902302604" transform="matrix(0.88103643922843,0.4730484042375462,-0.4730484042375462,0.88103643922843,597.7698898486989,210.4355920246221)" fill="none" stroke="#eeeeee" filter="url(#bbburst-blur-1)"></use><use xlink:href="#bbburst-shape-11" width="9.22411212983432" opacity="0.7869500318247616" transform="matrix(0.9592188081224796,-0.28266460362785023,0.28266460362785023,0.9592188081224796,314.3637122188317,-72.91217304031625)" fill="none" stroke="#eeeeee"></use><use xlink:href="#bbburst-shape-13" width="35.118722739238805" opacity="0.0049952573686616875" transform="matrix(1.687416518355137,-0.4638162282437162,0.4638162282437162,1.687416518355137,-182.56504153568693,-522.7380697763194)" fill="none" stroke="#eeeeee" filter="url(#bbburst-blur-4)"></use><use xlink:href="#bbburst-shape-13" width="18.25093254016283" opacity="0.1498210518550641" transform="matrix(1.0845355692709746,-0.6215163706501083,0.6215163706501083,1.0845355692709746,514.1949050816361,58.250762004270825)" fill="none" stroke="#eeeeee" filter="url(#bbburst-blur-3)"></use><use xlink:href="#bbburst-shape-9" width="12.793394634218572" opacity="0.7497697113264232" transform="matrix(0.9761178067066346,-0.21724186389880984,0.21724186389880984,0.9761178067066346,243.82424350602776,104.17776284757866)" fill="none" stroke="#eeeeee" filter="url(#bbburst-blur-1)"></use><use xlink:href="#bbburst-shape-11" width="18.012453238816512" opacity="0.16373256423916216" transform="matrix(1.1345930364036731,0.5245937873672286,-0.5245937873672286,1.1345930364036731,560.1513214016645,315.40691390634953)" fill="none" stroke="#eeeeee" filter="url(#bbburst-blur-3)"></use><use xlink:href="#bbburst-shape-13" width="21.352495253512316" opacity="0.39612100679825546" transform="matrix(0.8916498139117498,0.45272575512239405,-0.45272575512239405,0.8916498139117498,301.307150836651,10.166076537784534)" fill="none" stroke="#eeeeee" filter="url(#bbburst-blur-2)"></use><use xlink:href="#bbburst-shape-9" width="23.53354402939048" opacity="0.2308703696348201" transform="matrix(1.1602095405102764,0.46520299021925204,-0.46520299021925204,1.1602095405102764,814.9687574508674,-316.72639389981043)" fill="none" stroke="#eeeeee" filter="url(#bbburst-blur-3)"></use><use xlink:href="#bbburst-shape-11" width="16.3135457711096" opacity="0.6161186491796393" transform="matrix(0.867132195674285,-0.4980780613770231,0.4980780613770231,0.867132195674285,275.5468941647696,209.09538185418052)" fill="none" stroke="#eeeeee" filter="url(#bbburst-blur-1)"></use><use xlink:href="#bbburst-shape-11" width="7.484704459777975" opacity="0.9311676124999093" transform="matrix(0.738364782293035,0.67440154824063,-0.67440154824063,0.738364782293035,656.1403377371403,73.07399728486041)" fill="none" stroke="#eeeeee"></use><use xlink:href="#bbburst-shape-9" width="17.809723862518588" opacity="0.6883280014703048" transform="matrix(0.7757196513925896,-0.6310776675206937,0.6310776675206937,0.7757196513925896,18.889307353928643,164.95788766810676)" fill="none" stroke="#eeeeee" filter="url(#bbburst-blur-1)"></use><use xlink:href="#bbburst-shape-11" width="23.806492393950492" opacity="0.30279233545879924" transform="matrix(1.233930948771531,0.19978591958341113,-0.19978591958341113,1.233930948771531,151.74498426518542,-85.11245622870678)" fill="none" stroke="#eeeeee" filter="url(#bbburst-blur-3)"></use><use xlink:href="#bbburst-shape-11" width="11.485145574339034" opacity="0.6818073558375966" transform="matrix(0.7430540651290882,-0.669231392191921,0.669231392191921,0.7430540651290882,248.07945640748392,184.4169903809189)" fill="none" stroke="#eeeeee" filter="url(#bbburst-blur-1)"></use><use xlink:href="#bbburst-shape-11" width="27.869500792802867" opacity="0.16954009448853868" transform="matrix(1.0257392377367607,-0.7143941602275381,0.7143941602275381,1.0257392377367607,165.3656145060928,367.18200392553683)" fill="none" stroke="#eeeeee" filter="url(#bbburst-blur-3)"></use><use xlink:href="#bbburst-shape-11" width="8.170051310063043" opacity="0.7660035079060915" transform="matrix(0.9994542239860474,-0.03303413622977935,0.03303413622977935,0.9994542239860474,463.9592845478848,-66.71984540486142)" fill="none" stroke="#eeeeee" filter="url(#bbburst-blur-1)"></use><use xlink:href="#bbburst-shape-11" width="29.514478237334828" opacity="-0.10745902424474485" transform="matrix(1.4297788533005287,-1.0090750371774269,1.0090750371774269,1.4297788533005287,335.18002329038654,186.74368920564837)" fill="none" stroke="#eeeeee" filter="url(#bbburst-blur-4)"></use><use xlink:href="#bbburst-shape-11" width="19.575189897746988" opacity="0.46728773635500687" transform="matrix(0.9999985952950173,0.0016761288709801591,-0.0016761288709801591,0.9999985952950173,228.03717599505777,175.6496938987611)" fill="none" stroke="#eeeeee" filter="url(#bbburst-blur-2)"></use><use xlink:href="#bbburst-shape-11" width="33.632717809005754" opacity="0.1320136530068189" transform="matrix(1.2214940609567235,-0.26542844430740997,0.26542844430740997,1.2214940609567235,-74.35058025607653,-262.96453682824483)" fill="none" stroke="#eeeeee" filter="url(#bbburst-blur-3)"></use><use xlink:href="#bbburst-shape-11" width="9.124725237225451" opacity="0.7447905614365191" transform="matrix(0.992259183593345,0.12418418810246541,-0.12418418810246541,0.992259183593345,455.2379104257276,116.81438222649183)" fill="none" stroke="#eeeeee" filter="url(#bbburst-blur-1)"></use><use xlink:href="#bbburst-shape-11" width="7.228744420274354" opacity="0.9416444054815085" transform="matrix(0.9132898399510541,0.407310284969798,-0.407310284969798,0.9132898399510541,570.5224099439679,9.218252389588145)" fill="none" stroke="#eeeeee"></use><use xlink:href="#bbburst-shape-11" width="39.29107992233512" opacity="0.2331945560996821" transform="matrix(1.2183670086708445,0.2794312655778848,-0.2794312655778848,1.2183670086708445,270.57206824982904,-361.41323580610026)" fill="none" stroke="#eeeeee" filter="url(#bbburst-blur-3)"></use><use xlink:href="#bbburst-shape-9" width="6.768655366968124" opacity="0.9634013710818984" transform="matrix(0.7248195944287056,-0.6889387168189974,0.6889387168189974,0.7248195944287056,136.14200852018593,104.03131986108042)" fill="none" stroke="#eeeeee"></use><use xlink:href="#bbburst-shape-11" width="18.948433559768727" opacity="0.4759460967491591" transform="matrix(0.7182148226256634,-0.6958214343930396,0.6958214343930396,0.7182148226256634,0.46846853543638645,-87.18161746179277)" fill="none" stroke="#eeeeee" filter="url(#bbburst-blur-2)"></use><use xlink:href="#bbburst-shape-11" width="34.84711319999153" opacity="0.17466523215334528" transform="matrix(1.2325932330266995,0.20787958508903226,-0.20787958508903226,1.2325932330266995,100.79424841612041,-9.830619779954247)" fill="none" stroke="#eeeeee" filter="url(#bbburst-blur-3)"></use><use xlink:href="#bbburst-shape-9" width="24.318496076416995" opacity="0.23032868826874708" transform="matrix(0.9499028070232752,0.8125174811715143,-0.8125174811715143,0.9499028070232752,371.64441094462904,-45.06844719208266)" fill="none" stroke="#eeeeee" filter="url(#bbburst-blur-3)"></use><use xlink:href="#bbburst-shape-9" width="26.052335943364877" opacity="0.3924821504884687" transform="matrix(0.7678986433210149,0.6405713649436295,-0.6405713649436295,0.7678986433210149,398.99254924095135,200.80193457369455)" fill="none" stroke="#eeeeee" filter="url(#bbburst-blur-2)"></use><use xlink:href="#bbburst-shape-11" width="22.95828840084307" opacity="0.29927394900050897" transform="matrix(1.0929420796354044,0.606611581295838,-0.606611581295838,1.0929420796354044,889.1319042910982,135.6076057020996)" fill="none" stroke="#eeeeee" filter="url(#bbburst-blur-3)"></use><use xlink:href="#bbburst-shape-11" width="19.492935561567784" opacity="0.4896879121328457" transform="matrix(0.9961874343606157,-0.08723872776476056,0.08723872776476056,0.9961874343606157,584.9998924722407,4.647301269857223)" fill="none" stroke="#eeeeee" filter="url(#bbburst-blur-2)"></use><use xlink:href="#bbburst-shape-11" width="15.970542752562796" opacity="0.5758341782657819" transform="matrix(0.7438123277379575,-0.6683885255635688,0.6683885255635688,0.7438123277379575,316.27572772542044,128.72838667370496)" fill="none" stroke="#eeeeee" filter="url(#bbburst-blur-1)"></use><use xlink:href="#bbburst-shape-11" width="31.25601322664427" opacity="0.21747589011324575" transform="matrix(1.1582398719493943,0.4700855230983515,-0.4700855230983515,1.1582398719493943,864.5394462451497,-264.2885887001146)" fill="none" stroke="#eeeeee" filter="url(#bbburst-blur-3)"></use><use xlink:href="#bbburst-shape-9" width="14.152918917095063" opacity="0.6460595494671315" transform="matrix(0.7995908839124879,-0.6005451010240999,0.6005451010240999,0.7995908839124879,286.51210698775196,-4.128097196361125)" fill="none" stroke="#eeeeee" filter="url(#bbburst-blur-1)"></use><use xlink:href="#bbburst-shape-11" width="13.924474472865878" opacity="0.7055938790760057" transform="matrix(0.9696865623818294,-0.24435214493863258,0.24435214493863258,0.9696865623818294,279.25095914740973,-117.83432452071344)" fill="none" stroke="#eeeeee" filter="url(#bbburst-blur-1)"></use><use xlink:href="#bbburst-shape-9" width="9.796131356420082" opacity="0.801580214961052" transform="matrix(0.9911319659209875,0.13288124822411368,-0.13288124822411368,0.9911319659209875,509.6495190186223,67.71202404070726)" fill="none" stroke="#eeeeee"></use><use xlink:href="#bbburst-shape-11" width="9.798253025585145" opacity="0.8288862883927233" transform="matrix(0.8788165684290385,-0.47715976261060505,0.47715976261060505,0.8788165684290385,279.59160266491097,68.89265113115101)" fill="none" stroke="#eeeeee"></use><use xlink:href="#bbburst-shape-11" width="11.39415030552664" opacity="0.6955497793653282" transform="matrix(0.9095092456035612,-0.41568369244130937,0.41568369244130937,0.9095092456035612,173.0589441114545,163.7217435279054)" fill="none" stroke="#eeeeee" filter="url(#bbburst-blur-1)"></use><use xlink:href="#bbburst-shape-13" width="14.089111334249191" opacity="0.6585961527580875" transform="matrix(0.9082479311955739,0.4184324264190815,-0.4184324264190815,0.9082479311955739,470.6371741523923,158.01830806960726)" fill="none" stroke="#eeeeee" filter="url(#bbburst-blur-1)"></use><use xlink:href="#bbburst-shape-11" width="25.147015063679078" opacity="0.3026001536583509" transform="matrix(0.9853283509587509,0.7691736090096359,-0.7691736090096359,0.9853283509587509,402.52000874426125,-116.52540177856685)" fill="none" stroke="#eeeeee" filter="url(#bbburst-blur-3)"></use><use xlink:href="#bbburst-shape-9" width="7.839487969970542" opacity="0.8942598238788655" transform="matrix(0.8661828595356736,0.4997271794155321,-0.4997271794155321,0.8661828595356736,582.1779693161407,96.89183748679079)" fill="none" stroke="#eeeeee"></use><use xlink:href="#bbburst-shape-11" width="22.20694658876169" opacity="0.3134317912498841" transform="matrix(1.0988071724909316,0.5959218050067342,-0.5959218050067342,1.0988071724909316,908.3921118819262,-172.5472966055952)" fill="none" stroke="#eeeeee" filter="url(#bbburst-blur-3)"></use><use xlink:href="#bbburst-shape-11" width="28.059933002082737" opacity="0.10710434589323792" transform="matrix(1.7160297096010593,-0.34313559384958037,0.34313559384958037,1.7160297096010593,396.5911304845579,87.1966902254751)" fill="none" stroke="#eeeeee" filter="url(#bbburst-blur-4)"></use><use xlink:href="#bbburst-shape-9" width="25.39881819825257" opacity="0.341766558557987" transform="matrix(0.9944314919790186,-0.10538504524069367,0.10538504524069367,0.9944314919790186,477.1998882099366,-261.7710225820454)" fill="none" stroke="#eeeeee" filter="url(#bbburst-blur-2)"></use><use xlink:href="#bbburst-shape-13" width="7.647098197365378" opacity="0.8267271074226833" transform="matrix(0.9997957485841055,0.02021042090477399,-0.02021042090477399,0.9997957485841055,447.50973169242883,-64.87499813255164)" fill="none" stroke="#eeeeee"></use><use xlink:href="#bbburst-shape-11" width="17.88846194951925" opacity="0.5191206060348458" transform="matrix(0.9715778781223412,0.23672014435465571,-0.23672014435465571,0.9715778781223412,674.6625568090825,115.10960315214464)" fill="none" stroke="#eeeeee" filter="url(#bbburst-blur-2)"></use><use xlink:href="#bbburst-shape-13" width="7.543661148138338" opacity="0.8023543176384282" transform="matrix(0.8753579520020616,-0.48347539323812183,0.48347539323812183,0.8753579520020616,279.5974467393835,5.959901787197396)" fill="none" stroke="#eeeeee"></use><use xlink:href="#bbburst-shape-9" width="37.185209611822565" opacity="-0.09970665858967043" transform="matrix(1.6360596337452753,-0.6211351502123155,0.6211351502123155,1.6360596337452753,-217.56035874630356,117.6721897534585)" fill="none" stroke="#eeeeee" filter="url(#bbburst-blur-4)"></use><use xlink:href="#bbburst-shape-11" width="11.583187550275207" opacity="0.7284522054948459" transform="matrix(0.9664581595687369,-0.2568241145278415,0.2568241145278415,0.9664581595687369,413.8306239803046,14.389696670895205)" fill="none" stroke="#eeeeee" filter="url(#bbburst-blur-1)"></use><use xlink:href="#bbburst-shape-11" width="10.020978848269456" opacity="0.6830375030548996" transform="matrix(0.8619090031820518,0.5070629844839021,-0.5070629844839021,0.8619090031820518,594.3491878415971,195.1550539226575)" fill="none" stroke="#eeeeee" filter="url(#bbburst-blur-1)"></use><use xlink:href="#bbburst-shape-13" width="6.3533605687194745" opacity="0.9435064010664339" transform="matrix(0.9970748415844708,-0.07643140898415071,0.07643140898415071,0.9970748415844708,341.00802676294654,4.34876730554322)" fill="none" stroke="#eeeeee"></use><use xlink:href="#bbburst-shape-13" width="19.38658400884157" opacity="0.5511486654145329" transform="matrix(0.8520405011378811,-0.5234758680404555,0.5234758680404555,0.8520405011378811,373.8725881064852,128.41787796340486)" fill="none" stroke="#eeeeee" filter="url(#bbburst-blur-2)"></use><use xlink:href="#bbburst-shape-11" width="24.30835751773065" opacity="0.25630806608266055" transform="matrix(1.2275339524889124,-0.2359245546503127,0.2359245546503127,1.2275339524889124,288.10153706542565,246.12113951661956)" fill="none" stroke="#eeeeee" filter="url(#bbburst-blur-3)"></use><use xlink:href="#bbburst-shape-9" width="35.782329497393214" opacity="-0.01285723621310586" transform="matrix(1.5243574599686671,-0.8595547302166823,0.8595547302166823,1.5243574599686671,-334.7218519620136,80.34311494749784)" fill="none" stroke="#eeeeee" filter="url(#bbburst-blur-4)"></use><use xlink:href="#bbburst-shape-11" width="29.165976909483014" opacity="0.34611732915836846" transform="matrix(0.9933447751102897,0.11517880777768104,-0.11517880777768104,0.9933447751102897,419.18416655756903,-293.37483574064726)" fill="none" stroke="#eeeeee" filter="url(#bbburst-blur-2)"></use><use xlink:href="#bbburst-shape-9" width="24.886982131362952" opacity="0.13933450227678157" transform="matrix(1.0654855353656258,0.6536364233475868,-0.6536364233475868,1.0654855353656258,277.01464917270425,-144.70500908836613)" fill="none" stroke="#eeeeee" filter="url(#bbburst-blur-3)"></use><use xlink:href="#bbburst-shape-11" width="32.220807386821406" opacity="0.09019333275255237" transform="matrix(1.2705506128603643,1.203412290181612,-1.203412290181612,1.2705506128603643,1160.9025219631762,150.9965423935323)" fill="none" stroke="#eeeeee" filter="url(#bbburst-blur-4)"></use><use xlink:href="#bbburst-shape-11" width="16.013091219358273" opacity="0.4662655099766345" transform="matrix(0.9390164905161331,0.3438721136393077,-0.3438721136393077,0.9390164905161331,508.0049243215658,-217.71550415209757)" fill="none" stroke="#eeeeee" filter="url(#bbburst-blur-2)"></use></svg>