<?xml version="1.0" standalone="no"?>
<!DOCTYPE svg PUBLIC "-//W3C//DTD SVG 20010904//EN"
 "http://www.w3.org/TR/2001/REC-SVG-20010904/DTD/svg10.dtd">
<svg version="1.0" xmlns="http://www.w3.org/2000/svg"
 width="259.000000pt" height="259.000000pt" viewBox="0 0 259.000000 259.000000"
 preserveAspectRatio="xMidYMid meet">
<metadata>
Created by potrace 1.11, written by Peter Selinger 2001-2013
</metadata>
<g transform="translate(0.000000,259.000000) scale(0.100000,-0.100000)"
fill="#000000" stroke="none">
<path d="M1344 1853 c-21 -32 -67 -98 -101 -146 l-62 -88 -53 80 c-29 44 -55
81 -58 81 -3 0 -17 -19 -32 -42 -14 -24 -52 -79 -82 -123 -31 -44 -70 -100
-88 -125 -17 -25 -51 -73 -75 -107 l-45 -63 50 0 c48 0 52 2 80 43 107 157
148 216 169 244 l25 32 36 -52 c206 -299 179 -269 233 -265 l46 3 -79 112 -79
112 77 108 c93 131 84 122 98 100 6 -10 36 -54 66 -97 30 -43 96 -137 145
-209 l90 -131 48 0 c26 0 47 2 47 5 0 3 -22 36 -48 73 -26 37 -55 77 -63 88
-7 12 -64 93 -125 180 -61 88 -124 178 -140 201 -16 23 -32 42 -35 43 -3 0
-23 -26 -45 -57z"/>
<path d="M755 1265 c-29 -13 -28 -13 35 -15 65 -2 65 -2 28 -13 l-37 -12 34
-25 c40 -29 43 -40 13 -41 -17 -1 -14 -4 13 -13 28 -9 35 -16 34 -34 -1 -16 5
-24 22 -28 12 -4 20 -10 18 -15 -3 -5 6 -11 20 -15 31 -8 23 -24 -13 -25 l-27
-1 29 -10 29 -11 -24 -13 c-22 -12 -19 -13 36 -14 54 -1 58 -2 41 -15 -23 -18
-15 -30 26 -40 l33 -7 -45 -11 c-29 -7 -38 -12 -25 -14 47 -9 51 -14 31 -29
-18 -13 -17 -14 17 -14 20 0 37 4 37 9 0 5 10 12 23 16 19 6 19 8 5 12 -33 9
-18 23 25 23 23 0 49 5 57 10 13 8 12 10 -2 10 -22 0 -23 13 -3 30 13 11 18
10 31 -8 8 -12 24 -22 34 -22 10 0 22 -4 25 -10 4 -6 -11 -10 -37 -10 l-43 -1
30 -14 c22 -10 25 -14 11 -14 -32 -2 -13 -10 45 -20 43 -7 49 -10 32 -16 -13
-4 -20 -11 -18 -16 3 -4 -3 -12 -12 -18 -15 -9 -14 -11 12 -11 38 -2 65 -7 73
-14 3 -3 -2 -6 -11 -6 -10 0 -17 -7 -17 -15 0 -9 -10 -15 -22 -16 -22 -1 -22
-1 2 -9 14 -4 42 -8 63 -9 23 -1 36 -5 32 -11 -8 -12 35 -13 53 -1 9 5 -5 11
-40 16 l-53 7 50 14 c28 8 60 14 73 14 40 0 23 18 -25 25 l-48 8 37 11 c20 6
40 14 44 19 4 4 18 7 30 7 43 0 34 18 -13 25 -53 8 -42 24 17 25 32 1 33 2 17
14 -18 14 -18 14 1 20 11 4 23 13 26 21 3 8 22 17 42 21 l38 7 -44 17 -43 17
44 8 c43 8 43 8 14 15 -27 6 -28 8 -10 14 11 4 30 12 43 17 13 5 35 9 50 10
20 1 15 4 -21 14 -68 19 -69 25 -4 25 63 0 76 15 22 26 -52 9 -42 24 18 25 47
1 49 2 19 9 -46 11 -51 20 -14 21 18 1 37 3 42 4 6 1 18 3 28 4 14 2 13 4 -5
11 -15 6 -21 15 -17 25 4 10 0 15 -10 15 -22 0 -20 17 2 23 9 3 -3 5 -28 5
-45 0 -121 -15 -88 -17 10 0 22 -10 28 -21 6 -11 17 -20 25 -20 32 0 13 -16
-22 -18 -40 -3 -83 -21 -50 -22 38 0 14 -20 -25 -21 -46 0 -36 -10 27 -25 26
-6 21 -9 -40 -18 l-70 -12 55 -8 55 -9 -35 -12 c-19 -6 -46 -16 -60 -22 -24
-10 -24 -11 -5 -19 17 -7 12 -10 -25 -19 l-45 -12 42 -7 c51 -9 66 -26 23 -26
-18 0 -37 -8 -48 -21 -9 -11 -24 -28 -32 -38 -8 -9 -31 -22 -50 -27 l-35 -10
55 -8 55 -9 -35 -9 c-19 -5 -41 -14 -47 -20 -8 -6 -13 -7 -13 -1 0 6 10 15 23
21 21 10 20 11 -10 13 -18 1 -37 3 -43 4 -5 1 -22 4 -37 5 -25 2 -25 3 -5 7
12 2 22 9 22 14 0 5 -10 10 -22 10 -15 1 -11 4 12 9 l35 7 -27 11 c-32 13 -36
29 -11 47 14 10 5 13 -52 20 -54 5 -65 9 -51 17 15 8 16 12 5 19 -10 6 -5 9
16 10 17 0 24 3 18 6 -22 8 -14 22 20 37 l32 14 -40 1 c-50 2 -30 17 34 27 47
7 39 23 -14 25 l-30 1 32 11 c17 7 39 22 50 35 10 13 34 27 53 31 l35 8 -47 8
c-33 5 -48 12 -48 22 0 12 -8 14 -37 8 -55 -10 -76 -24 -36 -25 17 0 40 -3 50
-7 14 -6 10 -9 -17 -13 -23 -3 -38 -12 -44 -26 -5 -11 -23 -27 -40 -35 l-31
-14 35 -6 c37 -6 34 -8 -35 -30 l-40 -13 35 -6 35 -7 -27 -11 c-30 -12 -36
-28 -16 -34 7 -3 -6 -8 -30 -12 -24 -3 -40 -10 -37 -15 3 -5 -8 -12 -25 -16
-17 -4 -28 -11 -24 -16 6 -11 -14 -11 -41 1 -17 7 -17 9 -2 9 24 1 22 21 -3
21 -37 0 -20 20 18 21 32 1 34 2 12 8 -15 4 -24 14 -24 24 1 12 -6 17 -27 17
-26 0 -29 3 -24 23 5 20 1 25 -27 34 -32 10 -32 10 -10 20 23 9 23 10 -19 39
-42 29 -42 29 -16 32 48 6 29 22 -25 22 -38 0 -49 3 -38 10 24 16 -40 12 -75
-5z m380 -285 c14 -7 8 -8 -20 -3 -22 3 -42 7 -44 9 -9 8 45 2 64 -6z"/>
<path d="M1095 850 c3 -5 -2 -11 -11 -14 -9 -4 -14 -9 -11 -13 4 -3 12 -1 19
4 7 6 22 13 33 15 17 3 15 5 -7 10 -15 3 -25 2 -23 -2z"/>
<path d="M1378 703 c7 -3 16 -2 19 1 4 3 -2 6 -13 5 -11 0 -14 -3 -6 -6z"/>
</g>
</svg>
